Coordinates
version=1
nRows=12
nColumns=19
inDegrees=yes

Units are S.I. units (second, meters, Newtons, ...)
If the header above contains a line with 'inDegrees', this indicates whether rotational values are in degrees (yes) or radians (no).

endheader
time	subtalar_angle_l	subtalar_angle_r	pelvis_list	pelvis_rotation	pelvis_tilt	pelvis_tx	pelvis_ty	pelvis_tz	hip_flexion_l	hip_adduction_l	hip_rotation_l	hip_flexion_r	hip_adduction_r	hip_rotation_r	knee_flexion_l	knee_flexion_r	ankle_angle_l	ankle_angle_r
      1.96000000	     17.28299455	     17.25668120	     86.63404763	      9.32543986	    -11.65745730	      0.38673574	     -0.91707601	      0.88323102	     27.79933850	      1.18675755	     -5.92570677	     16.41320930	     10.93143614	      3.15719874	    -49.91601239	     -7.71676845	      6.71744136	      7.22901360
      1.97000000	     15.75786104	     17.43184720	     87.12175112	      9.06905520	    -11.75891516	      0.39804168	     -0.91591061	      0.88506253	     29.05264626	      0.67828152	     -5.23223758	     14.85058313	     10.42110083	      3.48410016	    -48.40674440	     -6.22650301	      7.81571557	      7.03246888
      1.98000000	     14.44327401	     17.59165552	     87.60544090	      8.73981327	    -11.82818240	      0.40925130	     -0.91464994	      0.88662495	     30.17085207	      0.19232426	     -4.48863308	     13.30645353	      9.90054643	      3.87114784	    -46.62177994	     -4.81437124	      8.68648209	      6.83489185
      1.99000000	     13.37088733	     17.73351302	     88.06543396	      8.33405829	    -11.87174530	      0.42036931	     -0.91329949	      0.88789464	     31.16529901	     -0.24737320	     -3.71147580	     11.80631658	      9.38703029	      4.31359305	    -44.58019273	     -3.50912351	      9.35965639	      6.65513986
      2.00000000	     13.01374489	     17.93574078	     88.47590704	      7.84392047	    -11.93566559	      0.43138271	     -0.91188018	      0.88887466	     32.09518029	     -0.60228633	     -2.89332988	     10.40172157	      8.90935528	      4.88121870	    -42.30426420	     -2.32190927	      9.64737207	      6.63453651
      2.01000000	     12.23690162	     17.99613825	     88.84590391	      7.30309436	    -11.85956906	      0.44239123	     -0.91037604	      0.88949162	     32.76959549	     -0.90358754	     -2.11815437	      8.95871708	      8.44532732	      5.32019352	    -39.79919207	     -1.28848446	     10.24182775	      6.42091522
      2.02000000	     12.11692138	     18.17057352	     89.14611955	      6.69840714	    -11.87529465	      0.45329710	     -0.90883161	      0.88984431	     33.44359390	     -1.11878054	     -1.39403557	      7.68679746	      8.03969330	      5.90836346	    -37.08009170	     -0.37836038	     10.39361765	      6.43778652
      2.03000000	     12.13446938	     18.31626769	     89.37639298	      6.02495467	    -11.80647846	      0.46421550	     -0.90723737	      0.88985669	     33.92183008	     -1.23021259	     -0.69423351	      6.42569287	      7.68464556	      6.46546536	    -34.16860375	      0.37737664	     10.54739134	      6.45013398
      2.04000000	     12.35627201	     18.44552184	     89.52580393	      5.29247748	    -11.70114211	      0.47514902	     -0.90561739	      0.88954978	     34.25204373	     -1.23261201	     -0.04715149	      5.20918613	      7.39521832	      7.04656987	    -31.08836999	      0.99767555	     10.65262457	      6.48713247
      2.05000000	     12.83388147	     18.56643681	     89.59418411	      4.51264802	    -11.55190910	      0.48613788	     -0.90398678	      0.88892732	     34.41902608	     -1.13242802	      0.52331641	      4.01727081	      7.17284733	      7.64200234	    -27.86823815	      1.49621807	     10.68376331	      6.56896663
      2.06000000	     14.54118993	     18.52178801	     89.58111366	      3.68513381	    -11.38384902	      0.49720883	     -0.90235069	      0.88799399	     34.46966458	     -0.91043577	      1.11219457	      2.90193068	      7.01902635	      8.17076541	    -24.57205202	      1.82587457	     10.55693240	      6.75105385
      2.07000000	     15.66428462	     18.67684846	     89.48958893	      2.82566906	    -11.15191423	      0.50841817	     -0.90071659	      0.88675845	     34.32328987	     -0.61081115	      1.53831022	      1.76379899	      6.93108590	      8.71665983	    -21.22409052	      2.05725836	     10.39212537	      6.96298141
